<svg viewBox="0 0 100 100" xmlns="http://www.w3.org/2000/svg" fill="none">
  <!-- 外円 -->
  <circle cx="50" cy="50" r="46" stroke="currentColor" stroke-width="0.6" opacity="0.5"/>
  <!-- 内円 (破線) -->
  <circle cx="50" cy="50" r="38" stroke="currentColor" stroke-width="0.4" opacity="0.6" stroke-dasharray="1.5 2"/>
  <!-- 十字方位 -->
  <path d="M50 8 L50 92" stroke="currentColor" stroke-width="0.4" opacity="0.3"/>
  <path d="M8 50 L92 50" stroke="currentColor" stroke-width="0.4" opacity="0.3"/>
  <!-- 蔦の幹 (中央縦) -->
  <path d="M50 22 Q 48 35, 50 50 Q 52 65, 50 78"
        stroke="currentColor" stroke-width="1.2" stroke-linecap="round"/>
  <!-- 左の枝・蔦巻き -->
  <path d="M50 30 C 42 30, 38 26, 35 22"
        stroke="currentColor" stroke-width="0.9" stroke-linecap="round" opacity="0.85"/>
  <path d="M35 22 C 30 22, 28 25, 31 27"
        stroke="currentColor" stroke-width="0.7" stroke-linecap="round" opacity="0.7"/>
  <path d="M50 42 C 40 42, 34 38, 28 38"
        stroke="currentColor" stroke-width="0.9" stroke-linecap="round" opacity="0.85"/>
  <path d="M28 38 C 22 38, 20 41, 23 43"
        stroke="currentColor" stroke-width="0.7" stroke-linecap="round" opacity="0.7"/>
  <path d="M50 58 C 40 58, 34 62, 28 62"
        stroke="currentColor" stroke-width="0.9" stroke-linecap="round" opacity="0.85"/>
  <!-- 右の枝・蔦巻き -->
  <path d="M50 30 C 58 30, 62 26, 65 22"
        stroke="currentColor" stroke-width="0.9" stroke-linecap="round" opacity="0.85"/>
  <path d="M65 22 C 70 22, 72 25, 69 27"
        stroke="currentColor" stroke-width="0.7" stroke-linecap="round" opacity="0.7"/>
  <path d="M50 42 C 60 42, 66 38, 72 38"
        stroke="currentColor" stroke-width="0.9" stroke-linecap="round" opacity="0.85"/>
  <path d="M72 38 C 78 38, 80 41, 77 43"
        stroke="currentColor" stroke-width="0.7" stroke-linecap="round" opacity="0.7"/>
  <path d="M50 58 C 60 58, 66 62, 72 62"
        stroke="currentColor" stroke-width="0.9" stroke-linecap="round" opacity="0.85"/>
  <!-- 上下の装飾 -->
  <path d="M50 14 L50 22" stroke="currentColor" stroke-width="0.5" stroke-linecap="round"/>
  <path d="M50 78 L50 86" stroke="currentColor" stroke-width="0.5" stroke-linecap="round"/>
  <!-- 中心の星 (魔力の煌めき) -->
  <path d="M50 46 L51.5 49.5 L55 50 L52 52.3 L53 56 L50 54 L47 56 L48 52.3 L45 50 L48.5 49.5 Z"
        fill="currentColor"/>
  <!-- 四方の小さな点 -->
  <circle cx="50" cy="6" r="0.8" fill="currentColor"/>
  <circle cx="50" cy="94" r="0.8" fill="currentColor"/>
  <circle cx="6" cy="50" r="0.8" fill="currentColor"/>
  <circle cx="94" cy="50" r="0.8" fill="currentColor"/>
</svg>
